<svg width="108" height="25" viewBox="0 0 108 25" fill="none" xmlns="http://www.w3.org/2000/svg">
<path d="M104.467 24.6357C103.507 24.6357 102.672 24.2927 101.964 23.6067C101.278 22.8979 100.935 22.0633 100.935 21.103C100.935 20.1426 101.278 19.3195 101.964 18.6335C102.672 17.9247 103.507 17.5703 104.467 17.5703C105.428 17.5703 106.251 17.9247 106.937 18.6335C107.646 19.3195 108 20.1426 108 21.103C108 22.0633 107.646 22.8979 106.937 23.6067C106.251 24.2927 105.428 24.6357 104.467 24.6357Z" fill="#E980FC"/>
<path d="M80.5695 20.0442V11.1611L90.5844 0.117188H98.9188L80.5695 20.0442ZM77.0025 24.1256V0.117188H83.3476V24.1256H77.0025ZM91.339 24.1256L82.0443 11.9156L86.8117 8.21146L99.2275 24.1256H91.339Z" fill="black"/>
<path d="M66.5267 24.1256L51.9501 3.58126L57.1634 0.117188L71.6371 20.5244L66.5267 24.1256ZM50.4753 24.1256V0.117188H57.1634L56.8204 5.98211V24.1599L50.4753 24.1256ZM66.5267 24.1256V0.117188H72.8718V24.1256H66.5267Z" fill="black"/>
<path d="M40.0253 24.1256V0.117188H46.3704V24.1256H40.0253Z" fill="black"/>
<path d="M21.0677 24.1256V0.117188H27.4128V24.1256H21.0677ZM24.6347 24.1256V18.295H37.2905V24.1256H24.6347Z" fill="black"/>
<path d="M1.68059 24.1131V18.5225H9.08891C9.84346 18.5225 10.438 18.3167 10.8724 17.9052C11.3297 17.4936 11.5584 16.9677 11.5584 16.3275C11.5584 15.6872 11.3297 15.1728 10.8724 14.7841C10.438 14.3954 9.84346 14.2124 9.08891 14.2353H1.68059V9.5022L5.83062 9.67369C8.23147 9.67369 10.3579 9.90234 12.21 10.3596C14.0621 10.7941 15.514 11.5372 16.5658 12.589C17.6176 13.6408 18.1435 15.1042 18.1435 16.9791C18.1435 18.5111 17.7891 19.8144 17.0803 20.8891C16.3715 21.9409 15.3883 22.7411 14.1307 23.2899C12.896 23.8387 11.4669 24.1131 9.84346 24.1131H1.68059ZM0 24.1131V0.10461H6.1736V24.1131H0ZM1.40621 14.6469V9.19352H8.19717C8.92886 9.19352 9.52335 9.0106 9.98066 8.64476C10.438 8.27892 10.6666 7.76445 10.6666 7.10136C10.6666 6.43827 10.438 5.9238 9.98066 5.55796C9.52335 5.16925 8.92886 4.98633 8.19717 5.00919H1.40621V0.173207L8.64304 0.0703125C10.3122 0.0703125 11.787 0.333262 13.0675 0.859162C14.3479 1.3622 15.354 2.13961 16.0857 3.19141C16.8173 4.24321 17.1832 5.58082 17.1832 7.20425C17.1832 8.37038 16.6916 9.47934 15.7084 10.5311C14.748 11.5601 13.4104 12.4061 11.6955 13.0692C9.98066 13.7094 8.01425 14.0295 5.79633 14.0295L1.40621 14.6469Z" fill="black"/>
</svg>
